<mxfile host="app.diagrams.net" agent="Mozilla/5.0 (Windows NT 10.0; Win64; x64) AppleWebKit/537.36 (KHTML, like Gecko) Chrome/131.0.0.0 Safari/537.36" version="24.8.9">
  <diagram name="หน้า-1" id="D9RKhk8gIoRyOYI-z9uP">
    <mxGraphModel dx="1050" dy="530" grid="1" gridSize="10" guides="1" tooltips="1" connect="1" arrows="1" fold="1" page="1" pageScale="1" pageWidth="827" pageHeight="1169" math="0" shadow="0">
      <root>
        <mxCell id="0" />
        <mxCell id="1" parent="0" />
        <mxCell id="KYNy3xEp3-Svx2JIYM4R-3" value="" style="edgeStyle=orthogonalEdgeStyle;rounded=0;orthogonalLoop=1;jettySize=auto;html=1;" edge="1" parent="1" source="KYNy3xEp3-Svx2JIYM4R-1" target="KYNy3xEp3-Svx2JIYM4R-2">
          <mxGeometry relative="1" as="geometry" />
        </mxCell>
        <mxCell id="KYNy3xEp3-Svx2JIYM4R-1" value="Start" style="ellipse;whiteSpace=wrap;html=1;" vertex="1" parent="1">
          <mxGeometry x="354" y="10" width="120" height="80" as="geometry" />
        </mxCell>
        <mxCell id="KYNy3xEp3-Svx2JIYM4R-7" value="" style="edgeStyle=orthogonalEdgeStyle;rounded=0;orthogonalLoop=1;jettySize=auto;html=1;" edge="1" parent="1" source="KYNy3xEp3-Svx2JIYM4R-2" target="KYNy3xEp3-Svx2JIYM4R-6">
          <mxGeometry relative="1" as="geometry" />
        </mxCell>
        <mxCell id="KYNy3xEp3-Svx2JIYM4R-2" value="&lt;div style=&quot;&quot;&gt;&lt;span style=&quot;background-color: initial;&quot;&gt;Input hexadecimal number&lt;/span&gt;&lt;/div&gt;" style="shape=parallelogram;perimeter=parallelogramPerimeter;whiteSpace=wrap;html=1;fixedSize=1;align=center;" vertex="1" parent="1">
          <mxGeometry x="351" y="180" width="126" height="60" as="geometry" />
        </mxCell>
        <mxCell id="KYNy3xEp3-Svx2JIYM4R-9" value="" style="edgeStyle=orthogonalEdgeStyle;rounded=0;orthogonalLoop=1;jettySize=auto;html=1;" edge="1" parent="1" source="KYNy3xEp3-Svx2JIYM4R-6" target="KYNy3xEp3-Svx2JIYM4R-8">
          <mxGeometry relative="1" as="geometry" />
        </mxCell>
        <mxCell id="KYNy3xEp3-Svx2JIYM4R-6" value="Output binary code" style="shape=parallelogram;perimeter=parallelogramPerimeter;whiteSpace=wrap;html=1;fixedSize=1;" vertex="1" parent="1">
          <mxGeometry x="354" y="320" width="120" height="60" as="geometry" />
        </mxCell>
        <mxCell id="KYNy3xEp3-Svx2JIYM4R-8" value="End" style="ellipse;whiteSpace=wrap;html=1;" vertex="1" parent="1">
          <mxGeometry x="354" y="460" width="120" height="80" as="geometry" />
        </mxCell>
      </root>
    </mxGraphModel>
  </diagram>
</mxfile>
